<svg width="50" height="50" viewBox="0 0 50 50" fill="none" xmlns="http://www.w3.org/2000/svg">
<path d="M34.375 4.6875C29.2188 4.6875 25 8.90625 25 14.0625C25 15.6125 25.5984 17.1938 26.3672 18.9453C27.1812 20.7677 28.094 22.5443 29.1016 24.2672C30.3553 26.4172 31.6912 28.5182 33.1062 30.5656L34.375 32.4219L35.6453 30.5656C35.6453 30.5656 37.6594 27.6984 39.6484 24.2687C40.656 22.5453 41.5689 20.7682 42.3828 18.9453C43.1516 17.1938 43.75 15.6125 43.75 14.0625C43.75 8.90625 39.5312 4.6875 34.375 4.6875ZM18.7016 7.71563L6.25 13.0375V43.0156L18.7984 37.5969L31.2984 42.2844L43.75 36.9609V23.3391C42.7812 25.1706 41.7387 26.9622 40.625 28.7094V34.9109L32.8125 38.2313V35.6922L30.5172 32.3719C30.2379 31.9664 29.9613 31.5591 29.6875 31.15V38.3766L20.3125 34.8609V11.6219L22.0219 12.2578C22.1676 11.2171 22.4465 10.1994 22.8516 9.22969L18.7016 7.71563ZM34.375 7.8125C37.8422 7.8125 40.625 10.5953 40.625 14.0625C40.625 14.6672 40.2469 16.0938 39.55 17.6766C38.8547 19.2562 37.8719 21.0516 36.9141 22.7047C35.6391 24.9016 35.0891 25.6828 34.375 26.7578C33.6609 25.6828 33.1109 24.9016 31.8359 22.7047C30.8781 21.0516 29.8953 19.2563 29.1984 17.675C28.5031 16.0969 28.125 14.6672 28.125 14.0625C28.125 10.5953 30.9078 7.8125 34.375 7.8125ZM17.1875 11.7188V34.9125L9.375 38.2328V15.0875L17.1875 11.7188ZM34.375 11.7188C33.7534 11.7188 33.1573 11.9657 32.7177 12.4052C32.2782 12.8448 32.0312 13.4409 32.0312 14.0625C32.0312 14.6841 32.2782 15.2802 32.7177 15.7198C33.1573 16.1593 33.7534 16.4062 34.375 16.4062C34.9966 16.4062 35.5927 16.1593 36.0323 15.7198C36.4718 15.2802 36.7188 14.6841 36.7188 14.0625C36.7188 13.4409 36.4718 12.8448 36.0323 12.4052C35.5927 11.9657 34.9966 11.7188 34.375 11.7188Z" fill="#FEFEFE"/>
</svg>
