<svg width="50" height="50" viewBox="0 0 50 50" fill="none" xmlns="http://www.w3.org/2000/svg">
<path d="M25 45.8334V29.1667M25 20.8334V29.1667M25 29.1667L33.3334 25.0001M35.4167 14.5834C35.4167 11.8207 34.3192 9.17122 32.3657 7.21772C30.4122 5.26422 27.7627 4.16675 25 4.16675C22.2373 4.16675 19.5878 5.26422 17.6343 7.21772C15.6808 9.17122 14.5834 11.8207 14.5834 14.5834M25 37.5001H15.625C12.5861 37.5001 9.67161 36.2929 7.52276 34.144C5.3739 31.9952 4.16669 29.0807 4.16669 26.0417C4.16669 23.0028 5.3739 20.0883 7.52276 17.9395C9.67161 15.7906 12.5861 14.5834 15.625 14.5834H18.75M25 37.5001H34.375C37.3268 37.5047 40.1665 36.37 42.3023 34.3325C44.4381 32.295 45.7052 29.5118 45.8395 26.5631C45.9738 23.6144 44.9649 20.7276 43.0232 18.5043C41.0815 16.2811 38.3567 14.893 35.4167 14.6292" stroke="#FEFEFE" stroke-width="1.875" stroke-linecap="round" stroke-linejoin="round"/>
</svg>
