<svg width="50" height="50" viewBox="0 0 50 50" fill="none" xmlns="http://www.w3.org/2000/svg">
<path fill-rule="evenodd" clip-rule="evenodd" d="M9.6875 35C9.83304 34.8059 10.0218 34.6484 10.2387 34.54C10.4557 34.4315 10.6949 34.375 10.9375 34.375H18.75C19.1644 34.375 19.5618 34.5396 19.8549 34.8326C20.1479 35.1257 20.3125 35.5231 20.3125 35.9375C20.3125 36.3519 20.1479 36.7493 19.8549 37.0424C19.5618 37.3354 19.1644 37.5 18.75 37.5H11.7188L4.6875 46.875H45.3125L38.2812 37.5H31.25C30.8356 37.5 30.4382 37.3354 30.1451 37.0424C29.8521 36.7493 29.6875 36.3519 29.6875 35.9375C29.6875 35.5231 29.8521 35.1257 30.1451 34.8326C30.4382 34.5396 30.8356 34.375 31.25 34.375H39.0625C39.3051 34.375 39.5443 34.4315 39.7613 34.54C39.9782 34.6484 40.167 34.8059 40.3125 35L49.6875 47.5C49.8616 47.7321 49.9676 48.0082 49.9937 48.2972C50.0197 48.5862 49.9648 48.8767 49.835 49.1363C49.7053 49.3958 49.5058 49.6141 49.259 49.7666C49.0121 49.9192 48.7277 50 48.4375 50H1.5625C1.27233 50 0.987883 49.9192 0.741046 49.7666C0.494208 49.6141 0.294728 49.3958 0.164958 49.1363C0.0351881 48.8767 -0.019745 48.5862 0.00631431 48.2972C0.0323736 48.0082 0.138396 47.7321 0.312501 47.5L9.6875 35Z" fill="#FEFEFE"/>
<path fill-rule="evenodd" clip-rule="evenodd" d="M25 3.12506C23.7689 3.12506 22.5498 3.36755 21.4123 3.83869C20.2749 4.30983 19.2414 5.00039 18.3709 5.87094C17.5003 6.74149 16.8098 7.77498 16.3386 8.91241C15.8675 10.0498 15.625 11.2689 15.625 12.5001C15.625 13.7312 15.8675 14.9503 16.3386 16.0877C16.8098 17.2251 17.5003 18.2586 18.3709 19.1292C19.2414 19.9997 20.2749 20.6903 21.4123 21.1614C22.5498 21.6326 23.7689 21.8751 25 21.8751C27.4864 21.8751 29.871 20.8873 31.6291 19.1292C33.3873 17.371 34.375 14.9865 34.375 12.5001C34.375 10.0137 33.3873 7.62909 31.6291 5.87094C29.871 4.11278 27.4864 3.12506 25 3.12506ZM12.5 12.5001C12.5002 10.0945 13.1946 7.74013 14.4997 5.71941C15.8048 3.69869 17.6653 2.09747 19.8578 1.1079C22.0504 0.118317 24.4819 -0.217587 26.8607 0.140489C29.2394 0.498566 31.4643 1.53541 33.2684 3.12661C35.0725 4.71782 36.3791 6.79578 37.0315 9.11117C37.6839 11.4266 37.6544 13.881 36.9464 16.18C36.2384 18.479 34.8821 20.5249 33.0403 22.0722C31.1984 23.6195 28.9492 24.6025 26.5625 24.9032V42.1876C26.5625 42.602 26.3979 42.9994 26.1049 43.2924C25.8118 43.5854 25.4144 43.7501 25 43.7501C24.5856 43.7501 24.1882 43.5854 23.8951 43.2924C23.6021 42.9994 23.4375 42.602 23.4375 42.1876V24.9063C20.4155 24.5256 17.6365 23.0545 15.6225 20.7695C13.6086 18.4845 12.4982 15.5428 12.5 12.4969V12.5001Z" fill="#FEFEFE"/>
</svg>
