<svg width="41" height="36" viewBox="0 0 41 36" fill="none" xmlns="http://www.w3.org/2000/svg">
<path d="M34.6666 18.0002V9.66683H5.49992C4.39485 9.66683 3.33504 9.22784 2.55364 8.44644C1.77224 7.66504 1.33325 6.60523 1.33325 5.50016C1.33325 3.2085 3.20825 1.3335 5.49992 1.3335H30.4999V9.66683" stroke="#FEFEFE" stroke-width="2.5" stroke-linecap="round" stroke-linejoin="round"/>
<path d="M1.33325 5.5V30.5C1.33325 32.7917 3.20825 34.6667 5.49992 34.6667H34.6666V26.3333" stroke="#FEFEFE" stroke-width="2.5" stroke-linecap="round" stroke-linejoin="round"/>
<path d="M30.4999 18C29.3948 18 28.335 18.439 27.5536 19.2204C26.7722 20.0018 26.3333 21.0616 26.3333 22.1667C26.3333 24.4583 28.2083 26.3333 30.4999 26.3333H38.8333V18H30.4999Z" stroke="#FEFEFE" stroke-width="2.5" stroke-linecap="round" stroke-linejoin="round"/>
</svg>
